<svg aria-hidden="true" style="position: absolute; width: 0; height: 0; overflow: hidden;" version="1.1" xmlns="http://www.w3.org/2000/svg" xmlns:xlink="http://www.w3.org/1999/xlink">
<defs>
<symbol id="icon-clear" viewBox="0 0 24 24">
<path d="M18.984 6.422l-5.578 5.578 5.578 5.578-1.406 1.406-5.578-5.578-5.578 5.578-1.406-1.406 5.578-5.578-5.578-5.578 1.406-1.406 5.578 5.578 5.578-5.578z"></path>
</symbol>
<symbol id="icon-screen_rotation" viewBox="0 0 24 24">
<path d="M7.5 21.469l1.359-1.313 3.797 3.797-0.656 0.047q-4.688 0-8.133-3.188t-3.82-7.828h1.5q0.234 2.484 1.969 4.969t3.984 3.516zM14.813 21.188l6.375-6.375-12-12-6.375 6.375zM10.219 1.734l12.047 12.047q0.469 0.422 0.469 1.031t-0.469 1.078l-6.375 6.375q-0.422 0.469-1.031 0.469t-1.078-0.469l-12.047-12.047q-0.422-0.422-0.422-1.031 0-0.656 0.422-1.078l6.375-6.375q0.422-0.422 1.078-0.422 0.609 0 1.031 0.422zM16.5 2.531l-1.359 1.313-3.797-3.797 0.656-0.047q4.688 0 8.133 3.188t3.82 7.828h-1.5q-0.281-2.813-1.875-5.063t-4.078-3.422z"></path>
</symbol>
<symbol id="icon-attach_money" viewBox="0 0 24 24">
<path d="M11.813 10.922q1.031 0.281 1.711 0.563t1.43 0.773 1.148 1.242 0.398 1.781q0 1.453-0.961 2.367t-2.555 1.195v2.156h-3v-2.156q-1.547-0.328-2.555-1.313t-1.102-2.531h2.203q0.188 2.109 2.953 2.109 1.453 0 2.086-0.539t0.633-1.242q0-1.688-3-2.438-4.688-1.078-4.688-4.125 0-1.359 0.984-2.32t2.484-1.289v-2.156h3v2.203q1.547 0.375 2.367 1.406t0.867 2.391h-2.203q-0.094-2.109-2.531-2.109-1.219 0-1.945 0.516t-0.727 1.359q0 1.359 3 2.156z"></path>
</symbol>
<symbol id="icon-note_add" viewBox="0 0 24 24">
<path d="M12.984 9h5.531l-5.531-5.484v5.484zM15.984 15.984v-1.969h-3v-3h-1.969v3h-3v1.969h3v3h1.969v-3h3zM14.016 2.016l6 6v12q0 0.797-0.609 1.383t-1.406 0.586h-12q-0.797 0-1.406-0.586t-0.609-1.383l0.047-16.031q0-0.797 0.586-1.383t1.383-0.586h8.016z"></path>
</symbol>
<symbol id="icon-pan_tool" viewBox="0 0 24 24">
<path d="M23.016 5.484v14.531q0 1.641-1.195 2.813t-2.836 1.172h-7.266q-1.688 0-2.859-1.172l-7.875-8.016q1.266-1.219 1.313-1.219 0.328-0.281 0.797-0.281 0.328 0 0.609 0.141l4.313 2.438v-11.906q0-0.609 0.445-1.055t1.055-0.445 1.055 0.445 0.445 1.055v7.031h0.984v-9.516q0-0.656 0.422-1.078t1.078-0.422 1.078 0.422 0.422 1.078v9.516h0.984v-8.531q0-0.609 0.445-1.055t1.055-0.445 1.055 0.445 0.445 1.055v8.531h1.031v-5.531q0-0.609 0.445-1.055t1.055-0.445 1.055 0.445 0.445 1.055z"></path>
</symbol>
<symbol id="icon-alt_route" viewBox="0 0 24 24">
<path d="M9.797 11.156l-1.453 1.406q-0.516-0.516-0.984-1.219t-0.797-1.688l1.969-0.516q0.234 0.656 0.563 1.148t0.703 0.867zM11.016 6l-4.031-3.984-3.984 3.984h3q0.047 1.266 0.188 2.156l1.969-0.469q-0.047-0.375-0.094-0.797t-0.047-0.891h3zM21 6l-3.984-3.984-4.031 3.984h3q-0.047 1.828-0.422 2.906t-0.938 1.734-1.172 1.219q-0.375 0.328-0.75 0.703t-0.703 0.891q-0.234-0.375-0.539-0.68l-0.586-0.586-1.406 1.406q0.469 0.422 0.82 0.844t0.539 1.031 0.188 1.547v0 0 0 4.969h1.969v-4.969q0-1.031 0.234-1.641t0.633-1.055 0.961-0.961q0.516-0.469 1.055-1.031t1.008-1.383 0.773-2.016 0.352-2.93h3z"></path>
</symbol>
<symbol id="icon-miscellaneous_services" viewBox="0 0 24 24">
<path d="M14.156 13.688l1.406-2.391q0.141-0.281-0.094-0.469l-1.453-1.125q0.047-0.375 0.047-0.703t-0.047-0.703l1.453-1.125q0.234-0.234 0.094-0.469l-1.406-2.438q-0.141-0.234-0.422-0.141l-1.734 0.703q-0.563-0.422-1.172-0.703l-0.281-1.828q-0.047-0.281-0.328-0.281h-2.813q-0.281 0-0.328 0.281l-0.281 1.875q-0.656 0.234-1.172 0.656l-1.734-0.703q-0.281-0.094-0.422 0.188l-1.406 2.391q-0.188 0.281 0.047 0.469l1.5 1.125q-0.047 0.375-0.047 0.703t0.047 0.703l-1.5 1.125q-0.234 0.234-0.047 0.469l1.406 2.438q0.141 0.234 0.422 0.141l1.734-0.703q0.563 0.422 1.172 0.703l0.281 1.828q0.047 0.281 0.328 0.281h2.813q0.281 0 0.328-0.281l0.281-1.875q0.656-0.234 1.172-0.656l1.734 0.703q0.281 0.094 0.422-0.188zM8.813 11.016q-0.844 0-1.43-0.586t-0.586-1.43 0.586-1.43 1.43-0.586 1.43 0.586 0.586 1.43-0.586 1.43-1.43 0.586zM21.938 18.656l-0.984-0.703q0-0.141 0.023-0.234t0.023-0.234q0-0.234-0.047-0.422l0.938-0.75q0.188-0.141 0.047-0.281l-0.891-1.547q-0.047-0.188-0.281-0.094l-1.078 0.422q-0.375-0.281-0.797-0.422l-0.141-1.172q-0.047-0.234-0.234-0.234h-1.781q-0.188 0-0.234 0.188l-0.141 1.219q-0.234 0.047-0.422 0.164t-0.328 0.258l-1.125-0.469q-0.188-0.047-0.281 0.094l-0.891 1.594q-0.094 0.141 0.047 0.281l0.938 0.75q-0.047 0.188-0.047 0.422t0.047 0.422l-0.938 0.75q-0.141 0.141-0.047 0.281l0.891 1.547q0.094 0.188 0.281 0.094l1.125-0.422q0.328 0.281 0.75 0.422l0.141 1.172q0.047 0.188 0.234 0.188h1.781q0.234 0 0.234-0.188l0.188-1.172 0.375-0.188t0.375-0.234l1.125 0.422q0.141 0.094 0.234-0.094l0.938-1.547q0.094-0.141-0.047-0.281zM17.625 18.844q-0.563 0-0.961-0.398t-0.398-0.961 0.398-0.961 0.961-0.398 0.961 0.398 0.398 0.961-0.398 0.961-0.961 0.398z"></path>
</symbol>
<symbol id="icon-wifi_protected_setup" viewBox="0 0 24 24">
<path d="M16.688 5.297l2.297-2.297h-7.969v8.016l2.297-2.297q1.453 1.078 2.344 2.742t0.891 3.68q0 0.984-0.234 1.898t-0.656 1.711q1.781-1.125 2.836-3t1.055-4.125q0-1.875-0.773-3.516t-2.086-2.813zM7.453 8.859q0-0.984 0.234-1.898t0.656-1.711q-1.781 1.125-2.836 3t-1.055 4.125q0 1.875 0.773 3.516t2.086 2.813l-2.297 2.297h7.969v-8.016l-2.297 2.297q-1.453-1.078-2.344-2.742t-0.891-3.68z"></path>
</symbol>
<symbol id="icon-spades" viewBox="0 0 32 32">
<path d="M25.549 10.88c-6.049-4.496-8.133-8.094-9.549-10.88v0c-0 0-0-0-0-0v0c-1.415 2.785-3.5 6.384-9.549 10.88-10.314 7.665-0.606 18.365 7.93 12.476-0.556 3.654-2.454 6.318-4.381 7.465v1.179h12.001v-1.179c-1.928-1.147-3.825-3.811-4.382-7.465 8.535 5.889 18.244-4.811 7.93-12.476z"></path>
</symbol>
<symbol id="icon-clubs" viewBox="0 0 32 32">
<path d="M24.588 12.274c-1.845 0-3.503 0.769-4.683 2.022-0.5 0.531-1.368 1.16-2.306 1.713 0.441-1.683 1.834-3.803 2.801-4.733 1.239-1.193 2-2.87 2-4.734 0-3.59-2.859-6.503-6.4-6.541-3.541 0.038-6.4 2.951-6.4 6.541 0 1.865 0.761 3.542 2 4.734 0.967 0.93 2.36 3.050 2.801 4.733-0.939-0.553-1.806-1.182-2.306-1.713-1.18-1.253-2.838-2.022-4.683-2.022-3.575 0-6.471 2.927-6.471 6.541s2.897 6.542 6.471 6.542c1.845 0 3.503-0.792 4.683-2.045 0.525-0.558 1.451-1.254 2.447-1.832-0.094 4.615-2.298 8.005-4.541 9.341v1.179h12v-1.179c-2.244-1.335-4.448-4.726-4.541-9.341 0.995 0.578 1.922 1.274 2.447 1.832 1.18 1.253 2.838 2.045 4.683 2.045 3.575 0 6.471-2.928 6.471-6.542s-2.897-6.541-6.471-6.541z"></path>
</symbol>
<symbol id="icon-diamonds" viewBox="0 0 32 32">
<path d="M16 0l-10 16 10 16 10-16z"></path>
</symbol>
<symbol id="icon-heart" viewBox="0 0 32 32">
<path d="M23.6 2c-3.363 0-6.258 2.736-7.599 5.594-1.342-2.858-4.237-5.594-7.601-5.594-4.637 0-8.4 3.764-8.4 8.401 0 9.433 9.516 11.906 16.001 21.232 6.13-9.268 15.999-12.1 15.999-21.232 0-4.637-3.763-8.401-8.4-8.401z"></path>
</symbol>
</defs>
</svg>
